# xmcd
#
# Track frame offsets: 
#        150
#        4686
#        19722
#        28083
#        40144
#        53550
#        67181
#        78332
#        83858
#        103981
#        116515
#        130520
#        151844
#        170112
#        182484
#        199224
#        213224
#        227170
#        242819
#        258304
#        272652
#        287211
#        302824
#        324235
#
# Disc length: 4551 seconds
#
# Revision: 0
# Processed by: cddbd v1.5.2PL0 Copyright (c) Steve Scherf et al.
# Submitted via: ExactAudioCopy v1.1
#
DISCID=4711c518
DTITLE=The Persuasions - More Than Before and I Just Want To Sing With M
DTITLE=y Friends ... Plus
DYEAR=1900
DGENRE=R&B
TTITLE0=Persuasions Theme
TTITLE1=I Just Want to Sing With My Friends
TTITLE2=Oh What a Night
TTITLE3=I'm a Hog for You
TTITLE4=Touch the Hem of His Garment
TTITLE5=A Lonesome Love Song
TTITLE6=Somewhere to Lay My Head
TTITLE7=A.B.C.'s of Love
TTITLE8=With This Ring
TTITLE9=All in the Game
TTITLE10=Island
TTITLE11=M.C. Introduction - Lookin' for a Love
TTITLE12=I've Got to Use My Imagination
TTITLE13=Gonna Keep on Tryin' Till I Win Your Love
TTITLE14=Beauty's Only Skin Deep
TTITLE15=Jesus Build a Fence Around Me
TTITLE16=Occapella
TTITLE17=Lay Back
TTITLE18=I Really Got It Bad for You
TTITLE19=Until They Say Mercy
TTITLE20=We're All Goin' Home
TTITLE21=One Thing On My Mind
TTITLE22=Darlin'
TTITLE23=One Thing On My Mind (long version)
EXTD=
EXTT0=
EXTT1=
EXTT2=
EXTT3=
EXTT4=
EXTT5=
EXTT6=
EXTT7=
EXTT8=
EXTT9=
EXTT10=
EXTT11=
EXTT12=
EXTT13=
EXTT14=
EXTT15=
EXTT16=
EXTT17=
EXTT18=
EXTT19=
EXTT20=
EXTT21=
EXTT22=
EXTT23=
PLAYORDER=
